<mxfile host="Electron" modified="2024-08-13T18:27:10.347Z" agent="Mozilla/5.0 (Windows NT 10.0; Win64; x64) AppleWebKit/537.36 (KHTML, like Gecko) draw.io/24.6.4 Chrome/124.0.6367.207 Electron/30.0.6 Safari/537.36" etag="QkuzGnIPUe4FL2vvFugY" version="24.6.4" type="device">
  <diagram name="第 1 页" id="y2rdXWNto9F5cV8aOrWe">
    <mxGraphModel dx="1673" dy="879" grid="1" gridSize="10" guides="1" tooltips="1" connect="1" arrows="1" fold="1" page="1" pageScale="1" pageWidth="827" pageHeight="1169" math="0" shadow="0">
      <root>
        <mxCell id="0" />
        <mxCell id="1" parent="0" />
        <mxCell id="TRHTgvlm5UJ0YTJBMsku-1" value="" style="group;fontSize=24;" vertex="1" connectable="0" parent="1">
          <mxGeometry x="130" y="90" width="643.94" height="518.29" as="geometry" />
        </mxCell>
        <mxCell id="S3VJyIc1T-L6wjQK50-U-25" value="" style="rounded=1;whiteSpace=wrap;html=1;container=1;fontSize=24;" parent="TRHTgvlm5UJ0YTJBMsku-1" vertex="1">
          <mxGeometry width="643.94" height="518.29" as="geometry" />
        </mxCell>
        <mxCell id="S3VJyIc1T-L6wjQK50-U-26" value="" style="rounded=1;whiteSpace=wrap;html=1;fillColor=#ffe6cc;strokeColor=#d79b00;fontSize=24;" parent="TRHTgvlm5UJ0YTJBMsku-1" vertex="1">
          <mxGeometry x="361.2346341463415" y="188.46909090909085" width="219.88195121951222" height="298.40939393939385" as="geometry" />
        </mxCell>
        <mxCell id="S3VJyIc1T-L6wjQK50-U-3" value="" style="edgeStyle=orthogonalEdgeStyle;rounded=0;orthogonalLoop=1;jettySize=auto;html=1;fontSize=24;" parent="TRHTgvlm5UJ0YTJBMsku-1" source="S3VJyIc1T-L6wjQK50-U-1" target="S3VJyIc1T-L6wjQK50-U-2" edge="1">
          <mxGeometry relative="1" as="geometry">
            <Array as="points">
              <mxPoint x="314.11707317073177" y="235.58636363636356" />
              <mxPoint x="314.11707317073177" y="235.58636363636356" />
            </Array>
          </mxGeometry>
        </mxCell>
        <mxCell id="S3VJyIc1T-L6wjQK50-U-27" value="req" style="edgeLabel;html=1;align=center;verticalAlign=middle;resizable=0;points=[];fontSize=24;" parent="S3VJyIc1T-L6wjQK50-U-3" vertex="1" connectable="0">
          <mxGeometry x="0.0417" y="2" relative="1" as="geometry">
            <mxPoint as="offset" />
          </mxGeometry>
        </mxCell>
        <mxCell id="S3VJyIc1T-L6wjQK50-U-6" value="" style="edgeStyle=orthogonalEdgeStyle;rounded=0;orthogonalLoop=1;jettySize=auto;html=1;fontSize=24;" parent="TRHTgvlm5UJ0YTJBMsku-1" source="S3VJyIc1T-L6wjQK50-U-1" target="S3VJyIc1T-L6wjQK50-U-5" edge="1">
          <mxGeometry relative="1" as="geometry">
            <Array as="points">
              <mxPoint x="125.6468292682927" y="329.820909090909" />
              <mxPoint x="125.6468292682927" y="329.820909090909" />
            </Array>
          </mxGeometry>
        </mxCell>
        <mxCell id="S3VJyIc1T-L6wjQK50-U-28" value="req" style="edgeLabel;html=1;align=center;verticalAlign=middle;resizable=0;points=[];fontSize=24;" parent="S3VJyIc1T-L6wjQK50-U-6" vertex="1" connectable="0">
          <mxGeometry x="0.04" relative="1" as="geometry">
            <mxPoint as="offset" />
          </mxGeometry>
        </mxCell>
        <mxCell id="S3VJyIc1T-L6wjQK50-U-1" value="RenameTop" style="rounded=1;whiteSpace=wrap;html=1;fillColor=#fff2cc;strokeColor=#d6b656;fontSize=24;fontStyle=1" parent="TRHTgvlm5UJ0YTJBMsku-1" vertex="1">
          <mxGeometry x="62.82341463414635" y="204.17484848484844" width="188.47024390243905" height="94.23454545454543" as="geometry" />
        </mxCell>
        <mxCell id="S3VJyIc1T-L6wjQK50-U-4" value="" style="edgeStyle=orthogonalEdgeStyle;rounded=0;orthogonalLoop=1;jettySize=auto;html=1;fontSize=24;" parent="TRHTgvlm5UJ0YTJBMsku-1" source="S3VJyIc1T-L6wjQK50-U-2" target="S3VJyIc1T-L6wjQK50-U-1" edge="1">
          <mxGeometry relative="1" as="geometry">
            <Array as="points">
              <mxPoint x="329.8229268292683" y="266.99787878787873" />
              <mxPoint x="329.8229268292683" y="266.99787878787873" />
            </Array>
          </mxGeometry>
        </mxCell>
        <mxCell id="S3VJyIc1T-L6wjQK50-U-24" value="rob id" style="edgeLabel;html=1;align=center;verticalAlign=middle;resizable=0;points=[];fontSize=24;" parent="S3VJyIc1T-L6wjQK50-U-4" vertex="1" connectable="0">
          <mxGeometry x="-0.0667" y="-2" relative="1" as="geometry">
            <mxPoint as="offset" />
          </mxGeometry>
        </mxCell>
        <mxCell id="S3VJyIc1T-L6wjQK50-U-14" value="free preg" style="edgeStyle=orthogonalEdgeStyle;rounded=0;orthogonalLoop=1;jettySize=auto;html=1;fontSize=24;" parent="TRHTgvlm5UJ0YTJBMsku-1" source="S3VJyIc1T-L6wjQK50-U-2" target="S3VJyIc1T-L6wjQK50-U-7" edge="1">
          <mxGeometry relative="1" as="geometry">
            <Array as="points">
              <mxPoint x="471.17560975609763" y="157.05757575757576" />
              <mxPoint x="471.17560975609763" y="157.05757575757576" />
            </Array>
          </mxGeometry>
        </mxCell>
        <mxCell id="S3VJyIc1T-L6wjQK50-U-20" value="commit" style="edgeStyle=orthogonalEdgeStyle;rounded=0;orthogonalLoop=1;jettySize=auto;html=1;labelBackgroundColor=none;fontSize=24;" parent="TRHTgvlm5UJ0YTJBMsku-1" source="S3VJyIc1T-L6wjQK50-U-2" target="S3VJyIc1T-L6wjQK50-U-18" edge="1">
          <mxGeometry relative="1" as="geometry" />
        </mxCell>
        <mxCell id="S3VJyIc1T-L6wjQK50-U-2" value="ReOrder Buffer" style="whiteSpace=wrap;html=1;fillColor=#f8cecc;strokeColor=#b85450;rounded=1;fontSize=24;fontStyle=1" parent="TRHTgvlm5UJ0YTJBMsku-1" vertex="1">
          <mxGeometry x="376.9404878048781" y="204.17484848484844" width="188.47024390243905" height="94.23454545454543" as="geometry" />
        </mxCell>
        <mxCell id="S3VJyIc1T-L6wjQK50-U-22" value="" style="edgeStyle=orthogonalEdgeStyle;rounded=0;orthogonalLoop=1;jettySize=auto;html=1;fontSize=24;" parent="TRHTgvlm5UJ0YTJBMsku-1" source="S3VJyIc1T-L6wjQK50-U-5" target="S3VJyIc1T-L6wjQK50-U-1" edge="1">
          <mxGeometry relative="1" as="geometry">
            <Array as="points">
              <mxPoint x="188.47024390243905" y="329.820909090909" />
              <mxPoint x="188.47024390243905" y="329.820909090909" />
            </Array>
          </mxGeometry>
        </mxCell>
        <mxCell id="S3VJyIc1T-L6wjQK50-U-23" value="preg id" style="edgeLabel;html=1;align=center;verticalAlign=middle;resizable=0;points=[];fontSize=24;" parent="S3VJyIc1T-L6wjQK50-U-22" vertex="1" connectable="0">
          <mxGeometry x="0.12" y="-2" relative="1" as="geometry">
            <mxPoint as="offset" />
          </mxGeometry>
        </mxCell>
        <mxCell id="S3VJyIc1T-L6wjQK50-U-5" value="sRAT" style="whiteSpace=wrap;html=1;fillColor=#dae8fc;strokeColor=#6c8ebf;rounded=1;fontSize=24;fontStyle=1" parent="TRHTgvlm5UJ0YTJBMsku-1" vertex="1">
          <mxGeometry x="62.82341463414635" y="376.9381818181817" width="188.47024390243905" height="94.23454545454543" as="geometry" />
        </mxCell>
        <mxCell id="S3VJyIc1T-L6wjQK50-U-16" value="get preg" style="edgeStyle=orthogonalEdgeStyle;rounded=0;orthogonalLoop=1;jettySize=auto;html=1;fontSize=24;" parent="TRHTgvlm5UJ0YTJBMsku-1" source="S3VJyIc1T-L6wjQK50-U-7" target="S3VJyIc1T-L6wjQK50-U-1" edge="1">
          <mxGeometry relative="1" as="geometry">
            <Array as="points">
              <mxPoint x="157.05853658536589" y="157.05757575757576" />
              <mxPoint x="157.05853658536589" y="157.05757575757576" />
            </Array>
          </mxGeometry>
        </mxCell>
        <mxCell id="S3VJyIc1T-L6wjQK50-U-7" value="Freelist" style="whiteSpace=wrap;html=1;fillColor=#dae8fc;strokeColor=#6c8ebf;rounded=1;fontSize=24;fontStyle=1" parent="TRHTgvlm5UJ0YTJBMsku-1" vertex="1">
          <mxGeometry x="62.82341463414635" y="47.11727272727271" width="518.2931707317074" height="94.23454545454543" as="geometry" />
        </mxCell>
        <mxCell id="S3VJyIc1T-L6wjQK50-U-21" value="recover" style="edgeStyle=orthogonalEdgeStyle;rounded=0;orthogonalLoop=1;jettySize=auto;html=1;fontSize=24;" parent="TRHTgvlm5UJ0YTJBMsku-1" source="S3VJyIc1T-L6wjQK50-U-18" target="S3VJyIc1T-L6wjQK50-U-5" edge="1">
          <mxGeometry relative="1" as="geometry" />
        </mxCell>
        <mxCell id="S3VJyIc1T-L6wjQK50-U-18" value="aRAT" style="whiteSpace=wrap;html=1;fillColor=#f8cecc;strokeColor=#b85450;rounded=1;fontSize=24;fontStyle=1" parent="TRHTgvlm5UJ0YTJBMsku-1" vertex="1">
          <mxGeometry x="376.9404878048781" y="376.9381818181817" width="188.47024390243905" height="94.23454545454543" as="geometry" />
        </mxCell>
      </root>
    </mxGraphModel>
  </diagram>
</mxfile>
